# xmcd CD database file
#
# Track frame offsets:
#	150
#	11085
#	26700
#	33947
#	44150
#	58337
#	69262
#	82157
#	95325
#	101857
#	116405
#	130860
#	141240
#	147015
#	162177
#	177177
#	192175
#	200110
#	210890
#	222100
#	230755
#	241862
#	252067
#	265512
#	278485
#	285255
#	295610
#	306452
#	317752
#	331605
#	340935
#
# Disc length: 4692 seconds
#
# Revision: 0
# Processed by: cddbd v1.5.2PL0 Copyright (c) Steve Scherf et al.
# Submitted via: CDex 1.51
#
DISCID=c512521f
DTITLE=Janette Carter - Deliverance Will Come
DYEAR=2004
DGENRE=Country
TTITLE0=Bury Me Beneath The Willow
TTITLE1=Lonesome Street
TTITLE2=Listen To The Mockingbird
TTITLE3=I Ain't Gonna Work Tomorrow
TTITLE4=Sinking In The Lonesome Sea
TTITLE5=I Found Jesus
TTITLE6=Storms Are On The Ocean
TTITLE7='Neath The Shade Of A Beautiful Pine
TTITLE8=Red Wing
TTITLE9=Little Moses
TTITLE10=In The Shadow Of Clinch Mountain
TTITLE11=Joy, Joy, Joy
TTITLE12=Howdayado!
TTITLE13=Little Rosewood Casket
TTITLE14=Wayworn Traveller
TTITLE15=Take-Me-Back Blues
TTITLE16=Johnny Doesn't Live Here Anymore
TTITLE17=Waltz, Kitty, Waltz
TTITLE18=Lonesome Pine Special
TTITLE19=Give Him One More As He Goes
TTITLE20=Heartbreaking Waltz
TTITLE21=Dark And Stormy Weather
TTITLE22=My Native Home
TTITLE23=Little Moses (Traditional)
TTITLE24=Kissin' Is A Crime
TTITLE25=My Dixie Darlin'
TTITLE26=Sea Of Galilee
TTITLE27=I'm Leaving You
TTITLE28=I'm Missing You
TTITLE29=Johnny Doesn't Live Here Anymore
TTITLE30=The Storms Are On The Ocean
EXTD=YEAR: 2004
EXTT0=
EXTT1=
EXTT2=
EXTT3=
EXTT4=
EXTT5=
EXTT6=
EXTT7=
EXTT8=
EXTT9=
EXTT10=
EXTT11=
EXTT12=
EXTT13=
EXTT14=
EXTT15=
EXTT16=
EXTT17=
EXTT18=
EXTT19=
EXTT20=
EXTT21=
EXTT22=
EXTT23=
EXTT24=
EXTT25=
EXTT26=
EXTT27=
EXTT28=
EXTT29=
EXTT30=
PLAYORDER=
